<?xml version="1.0" encoding="utf-8"?>
<!-- Generator: Adobe Illustrator 26.0.3, SVG Export Plug-In . SVG Version: 6.00 Build 0)  -->
<svg version="1.1" id="Layer_1" xmlns="http://www.w3.org/2000/svg" xmlns:xlink="http://www.w3.org/1999/xlink" x="0px" y="0px"
	 viewBox="0 0 2757 1714" style="enable-background:new 0 0 2757 1714;" xml:space="preserve">
<style type="text/css">
	.st0{font-family:'TimesNewRomanPS-BoldMT';}
	.st1{font-size:34px;}
	.st2{font-family:'TimesNewRomanPSMT';}
	.st3{font-size:26px;}
</style>
<image style="overflow:visible;enable-background:new    ;" width="1322" height="744" xlink:href="CF3192A7.png"  transform="matrix(0.5673 0 0 0.5847 538.5 185.5)">
</image>
<image style="overflow:visible;enable-background:new    ;" width="1432" height="744" xlink:href="CF3192AC.png"  transform="matrix(0.5237 0 0 0.5847 1497.25 185.5)">
</image>
<image style="overflow:visible;enable-background:new    ;" width="1432" height="744" xlink:href="CF3192AD.png"  transform="matrix(0.5237 0 0 0.5847 533.75 694)">
</image>
<image style="overflow:visible;enable-background:new    ;" width="1432" height="744" xlink:href="CF3192AF.png"  transform="matrix(0.5237 0 0 0.5847 1497.25 694)">
</image>
<image style="overflow:visible;enable-background:new    ;" width="1432" height="744" xlink:href="CF3192AB.png"  transform="matrix(0.5237 0 0 0.5847 538.5 1178.5)">
</image>
<image style="overflow:visible;enable-background:new    ;" width="1432" height="744" xlink:href="CF3192A4.png"  transform="matrix(0.5237 0 0 0.5847 1490.25 1178.5)">
</image>
<text transform="matrix(1 0 0 1 844.583 71.9209)" class="st0 st1">Academic Achivement of International Students From Different Places </text>
<text transform="matrix(1 0 0 1 1157.9258 135.4961)" class="st2 st3">2015/16 to 2020/21 Academic Year</text>
</svg>
